<svg width="460" height="272" viewBox="0 0 460 272" fill="none" xmlns="http://www.w3.org/2000/svg">
<mask id="mask0_1603_1803" style="mask-type:alpha" maskUnits="userSpaceOnUse" x="0" y="0" width="460" height="272">
<rect x="1" y="1" width="458" height="270" fill="#FF8A00" stroke="#2C3A45" stroke-width="2"/>
</mask>
<g mask="url(#mask0_1603_1803)">
<g filter="url(#filter0_bi_1603_1803)">
<path d="M77 106.5C1.5 171 -100.742 50.2732 -108.5 34L-61 303H38.9931H530.933C537.3 210.391 591.519 101.989 562.5 83.9996C526.226 61.513 521.237 76.0132 471 98.4997C420.763 120.986 409.818 86.9699 353 91.9998C296.182 97.0297 278.127 158.709 212 123.5C145.873 88.2908 119 68 77 106.5Z" fill="url(#paint0_linear_1603_1803)"/>
</g>
<g filter="url(#filter1_bi_1603_1803)">
<path d="M24.57 173.251C-5.53778 192.068 -30.15 176.955 -38.6927 167.046L-62 290.798L888 347L863.482 56C753.319 101.033 536.5 170.5 493.491 106.588C454 42.5 422.042 60.1251 403.611 77.5C381.419 102.5 340.46 163.76 303.451 177.802C266.441 191.843 175.698 166.002 134.952 151.326C73.0008 135.605 62.2048 149.73 24.57 173.251Z" fill="url(#paint1_linear_1603_1803)"/>
</g>
<g filter="url(#filter2_bi_1603_1803)">
<path d="M446 218C521.5 282.5 634.242 207.362 642 191.088L622.5 290H417H4C-2.36658 197.391 -68.535 209.078 -39.5161 191.088C-3.24255 168.602 -53.7373 187.602 -3.5 210.089C46.7373 232.575 54.1821 193.059 111 198.089C167.818 203.119 233.373 250.298 299.5 215.089C365.627 179.879 404 179.5 446 218Z" fill="url(#paint2_linear_1603_1803)"/>
</g>
</g>
<defs>
<filter id="filter0_bi_1603_1803" x="-110.5" y="32" width="683.484" height="273" filterUnits="userSpaceOnUse" color-interpolation-filters="sRGB">
<feFlood flood-opacity="0" result="BackgroundImageFix"/>
<feGaussianBlur in="BackgroundImageFix" stdDeviation="1"/>
<feComposite in2="SourceAlpha" operator="in" result="effect1_backgroundBlur_1603_1803"/>
<feBlend mode="normal" in="SourceGraphic" in2="effect1_backgroundBlur_1603_1803" result="shape"/>
<feColorMatrix in="SourceAlpha" type="matrix" values="0 0 0 0 0 0 0 0 0 0 0 0 0 0 0 0 0 0 127 0" result="hardAlpha"/>
<feOffset dy="2"/>
<feComposite in2="hardAlpha" operator="arithmetic" k2="-1" k3="1"/>
<feColorMatrix type="matrix" values="0 0 0 0 0.922949 0 0 0 0 0.470593 0 0 0 0 0.633441 0 0 0 0.2 0"/>
<feBlend mode="normal" in2="shape" result="effect2_innerShadow_1603_1803"/>
</filter>
<filter id="filter1_bi_1603_1803" x="-64" y="54" width="954" height="295" filterUnits="userSpaceOnUse" color-interpolation-filters="sRGB">
<feFlood flood-opacity="0" result="BackgroundImageFix"/>
<feGaussianBlur in="BackgroundImageFix" stdDeviation="1"/>
<feComposite in2="SourceAlpha" operator="in" result="effect1_backgroundBlur_1603_1803"/>
<feBlend mode="normal" in="SourceGraphic" in2="effect1_backgroundBlur_1603_1803" result="shape"/>
<feColorMatrix in="SourceAlpha" type="matrix" values="0 0 0 0 0 0 0 0 0 0 0 0 0 0 0 0 0 0 127 0" result="hardAlpha"/>
<feOffset dy="2"/>
<feComposite in2="hardAlpha" operator="arithmetic" k2="-1" k3="1"/>
<feColorMatrix type="matrix" values="0 0 0 0 0.560784 0 0 0 0 0.772549 0 0 0 0 0.988235 0 0 0 0.2 0"/>
<feBlend mode="normal" in2="shape" result="effect2_innerShadow_1603_1803"/>
</filter>
<filter id="filter2_bi_1603_1803" x="-48.8384" y="179" width="692.838" height="113" filterUnits="userSpaceOnUse" color-interpolation-filters="sRGB">
<feFlood flood-opacity="0" result="BackgroundImageFix"/>
<feGaussianBlur in="BackgroundImageFix" stdDeviation="1"/>
<feComposite in2="SourceAlpha" operator="in" result="effect1_backgroundBlur_1603_1803"/>
<feBlend mode="normal" in="SourceGraphic" in2="effect1_backgroundBlur_1603_1803" result="shape"/>
<feColorMatrix in="SourceAlpha" type="matrix" values="0 0 0 0 0 0 0 0 0 0 0 0 0 0 0 0 0 0 127 0" result="hardAlpha"/>
<feOffset dy="2"/>
<feComposite in2="hardAlpha" operator="arithmetic" k2="-1" k3="1"/>
<feColorMatrix type="matrix" values="0 0 0 0 0.437821 0 0 0 0 0.875016 0 0 0 0 0.507773 0 0 0 0.12 0"/>
<feBlend mode="normal" in2="shape" result="effect2_innerShadow_1603_1803"/>
</filter>
<linearGradient id="paint0_linear_1603_1803" x1="284" y1="84" x2="282.774" y2="236.256" gradientUnits="userSpaceOnUse">
<stop stop-color="#DA335B" stop-opacity="0.2"/>
<stop offset="0.647949" stop-color="#D94FFC" stop-opacity="0.05"/>
<stop offset="1" stop-color="#283138" stop-opacity="0.1"/>
</linearGradient>
<linearGradient id="paint1_linear_1603_1803" x1="486.762" y1="110.089" x2="486.415" y2="232.095" gradientUnits="userSpaceOnUse">
<stop stop-color="#E0C3FC" stop-opacity="0.2"/>
<stop offset="0.647949" stop-color="#8FC5FC" stop-opacity="0.05"/>
<stop offset="1" stop-color="#283138" stop-opacity="0.05"/>
</linearGradient>
<linearGradient id="paint2_linear_1603_1803" x1="247" y1="221.5" x2="246.626" y2="343.011" gradientUnits="userSpaceOnUse">
<stop stop-color="#4CE291" stop-opacity="0.1"/>
<stop offset="0.647949" stop-color="#527C67" stop-opacity="0.05"/>
<stop offset="1" stop-color="#283138" stop-opacity="0.1"/>
</linearGradient>
</defs>
</svg>
