<svg width="24" height="17" viewBox="0 0 24 17" fill="none" xmlns="http://www.w3.org/2000/svg">
<g clip-path="url(#clip0_1610_2045)">
<path fill-rule="evenodd" clip-rule="evenodd" d="M22.2895 0C22.748 0 22.9727 0.0433229 23.2064 0.168056C23.4196 0.281857 23.5884 0.450394 23.7025 0.663183C23.8274 0.896414 23.8708 1.12076 23.8708 1.57837V15.4216C23.8708 15.8792 23.8274 16.1036 23.7025 16.3368C23.5884 16.5496 23.4196 16.7181 23.2064 16.8319C22.9727 16.9567 22.748 17 22.2895 17H1.71027C1.25179 17 1.02702 16.9567 0.793347 16.8319C0.580155 16.7181 0.411297 16.5496 0.297281 16.3368C0.172311 16.1036 0.128906 15.8792 0.128906 15.4216V1.57837C0.128906 1.12076 0.172311 0.896414 0.297281 0.663183C0.411297 0.450394 0.580155 0.281857 0.793347 0.168056C1.02702 0.0433229 1.25179 0 1.71027 0H22.2895ZM22.2895 0.515152H1.71027C1.32971 0.515152 1.18543 0.54296 1.03675 0.622324C0.913505 0.688112 0.818323 0.783114 0.75241 0.906128C0.672895 1.05453 0.645035 1.19853 0.645035 1.57837V15.4216C0.645035 15.8015 0.672895 15.9455 0.75241 16.0939C0.818323 16.2169 0.913505 16.3119 1.03675 16.3777C1.18543 16.457 1.32971 16.4848 1.71027 16.4848H22.2895C22.67 16.4848 22.8143 16.457 22.963 16.3777C23.0862 16.3119 23.1814 16.2169 23.2473 16.0939C23.3268 15.9455 23.3547 15.8015 23.3547 15.4216V1.57837C23.3547 1.19853 23.3268 1.05453 23.2473 0.906128C23.1814 0.783114 23.0862 0.688112 22.963 0.622324C22.8143 0.54296 22.67 0.515152 22.2895 0.515152ZM11.9911 12.9576L12.2443 13.746L13.0705 13.7461L12.4 14.2267L12.651 15.0039L11.9915 14.5233L11.3319 15.0037L11.5823 14.2267L10.9121 13.7459L11.7383 13.7467L11.9911 12.9576ZM14.7697 12.2211L15.0223 13.0085L15.8486 13.0085L15.1781 13.4892L15.4296 14.2665L14.7695 13.7856L14.11 14.2663L14.3605 13.4892L13.6906 13.0083L14.5163 13.0093L14.7697 12.2211ZM9.21291 12.2211L9.46607 13.0085L10.2922 13.0085L9.6222 13.4892L9.87284 14.2664L9.21329 13.7856L8.55363 14.2664L8.80413 13.4892L8.13396 13.0083L8.96026 13.0093L9.21291 12.2211ZM16.8089 10.1852L17.0622 10.9731L17.8878 10.9732L17.2173 11.4539L17.469 12.2315L16.8089 11.7497L16.1489 12.2315L16.4004 11.4539L15.7297 10.9729L16.5555 10.9738L16.8089 10.1852ZM7.17368 10.1849L7.42684 10.9731L8.25268 10.9732L7.58258 11.4539L7.83375 12.2314L7.17381 11.7497L6.51394 12.2314L6.76491 11.4539L6.09471 10.9729L6.92078 10.9738L7.17368 10.1849ZM6.42717 7.40346L6.68013 8.19181L7.50604 8.19188L6.836 8.6727L7.08656 9.44974L6.4271 8.96905L5.76739 9.44974L6.01833 8.67258L5.3473 8.19146L6.17407 8.1931L6.42717 7.40346ZM17.5469 7.39587L17.8004 8.18408L18.6267 8.18416L17.9563 8.66498L18.2068 9.44223L17.5471 8.9608L16.8879 9.44244L17.1386 8.66498L16.4678 8.18395L17.2943 8.18486L17.5469 7.39587ZM7.17385 4.63073L7.42684 5.41901L8.2527 5.41904L7.58258 5.89977L7.83365 6.67697L7.17381 6.19624L6.51404 6.67697L6.76491 5.89964L6.09471 5.41885L6.92078 5.41965L7.17385 4.63073ZM16.8089 4.62339L17.0622 5.41128L17.8881 5.41132L17.2173 5.8914L17.4689 6.66863L16.8089 6.18787L16.149 6.66863L16.4004 5.8914L15.7294 5.4111L16.5555 5.41192L16.8089 4.62339ZM14.7773 2.59513L15.0301 3.38287L15.8566 3.38293L15.1865 3.86441L15.4372 4.64195L14.7779 4.16023L14.1176 4.64156L14.3683 3.86441L13.6984 3.3825L14.5245 3.38416L14.7773 2.59513ZM9.20865 2.59482L9.46181 3.38287L10.288 3.38293L9.61794 3.86364L9.86858 4.64085L9.20916 4.16011L8.5495 4.64075L8.79987 3.86376L8.12973 3.3827L8.95587 3.38364L9.20865 2.59482ZM11.9908 1.84969L12.2437 2.63693L13.0701 2.63705L12.3996 3.11783L12.6506 3.89495L11.9908 3.4143L11.331 3.89499L11.5819 3.11783L10.9117 2.63685L11.7378 2.63758L11.9908 1.84969Z" fill="white"/>
</g>
<defs>
<clipPath id="clip0_1610_2045">
<rect width="24" height="17" fill="white"/>
</clipPath>
</defs>
</svg>
