<svg width="300" height="300" viewBox="0 0 300 300" fill="none" xmlns="http://www.w3.org/2000/svg">
<rect width="300" height="300" rx="150" fill="white"/>
<path d="M97 96.7736C97 91.9281 92.9706 88 88 88V88C83.0294 88 79 91.9281 79 96.7736V203.226C79 208.072 83.0294 212 88 212V212C92.9706 212 97 208.072 97 203.226V96.7736Z" fill="#153035"/>
<path d="M97 96.7736C97 91.9281 92.9706 88 88 88V88C83.0294 88 79 91.9281 79 96.7736V203.226C79 208.072 83.0294 212 88 212V212C92.9706 212 97 208.072 97 203.226V96.7736Z" fill="#153035"/>
<path d="M97 96.7736C97 91.9281 92.9706 88 88 88V88C83.0294 88 79 91.9281 79 96.7736V203.226C79 208.072 83.0294 212 88 212V212C92.9706 212 97 208.072 97 203.226V96.7736Z" fill="#153035"/>
<path d="M68 114.684C68 109.888 63.9706 106 59 106V106C54.0294 106 50 109.888 50 114.684V185.316C50 190.112 54.0294 194 59 194V194C63.9706 194 68 190.112 68 185.316V114.684Z" fill="#153035"/>
<path d="M68 114.684C68 109.888 63.9706 106 59 106V106C54.0294 106 50 109.888 50 114.684V185.316C50 190.112 54.0294 194 59 194V194C63.9706 194 68 190.112 68 185.316V114.684Z" fill="#153035"/>
<path d="M68 114.684C68 109.888 63.9706 106 59 106V106C54.0294 106 50 109.888 50 114.684V185.316C50 190.112 54.0294 194 59 194V194C63.9706 194 68 190.112 68 185.316V114.684Z" fill="#153035"/>
<path fill-rule="evenodd" clip-rule="evenodd" d="M137.2 62C121.626 62 109 74.6077 109 90.16V209.84C109 225.392 121.626 238 137.2 238H221.8C237.374 238 250 225.392 250 209.84V90.16C250 74.6077 237.374 62 221.8 62H137.2ZM145.425 87.8133C141.531 87.8133 138.375 90.9652 138.375 94.8533V205.147C138.375 209.035 141.531 212.187 145.425 212.187H147.775C151.669 212.187 154.825 209.035 154.825 205.147V94.8533C154.825 90.9652 151.669 87.8133 147.775 87.8133H145.425Z" fill="#153035"/>
</svg>
