<svg width="200" height="176" viewBox="0 0 200 176" fill="none" xmlns="http://www.w3.org/2000/svg">
<path d="M47 34.7736C47 29.9281 42.9706 26 38 26V26C33.0294 26 29 29.9281 29 34.7736V141.226C29 146.072 33.0294 150 38 150V150C42.9706 150 47 146.072 47 141.226V34.7736Z" fill="#E6EDEF"/>
<path d="M18 52.6842C18 47.8881 13.9706 44 9 44V44C4.02944 44 -7.15256e-07 47.8881 -7.15256e-07 52.6842V123.316C-7.15256e-07 128.112 4.02944 132 9 132V132C13.9706 132 18 128.112 18 123.316V52.6842Z" fill="#E6EDEF"/>
<path fill-rule="evenodd" clip-rule="evenodd" d="M87.2 0C71.6256 0 59 12.6077 59 28.16V147.84C59 163.392 71.6256 176 87.2 176H171.8C187.374 176 200 163.392 200 147.84V28.16C200 12.6077 187.374 0 171.8 0H87.2ZM95.425 25.8133C91.5314 25.8133 88.375 28.9652 88.375 32.8533V143.147C88.375 147.035 91.5314 150.187 95.425 150.187H97.775C101.669 150.187 104.825 147.035 104.825 143.147V32.8533C104.825 28.9652 101.669 25.8133 97.775 25.8133H95.425Z" fill="url(#paint0_linear_1733_894)"/>
<defs>
<linearGradient id="paint0_linear_1733_894" x1="121.275" y1="65.12" x2="-7.90048" y2="-0.147479" gradientUnits="userSpaceOnUse">
<stop stop-color="#D5E0E4"/>
<stop offset="0.995289" stop-color="white"/>
</linearGradient>
</defs>
</svg>
