<svg width="110" height="18" viewBox="0 0 110 18" fill="none" xmlns="http://www.w3.org/2000/svg">
<path d="M107.644 15.5885V1.97266H110V15.5885H107.644Z" fill="#153035"/>
<path d="M100.718 15.8042C100.034 15.8042 99.4409 15.6903 98.9373 15.4625C98.4337 15.2347 98.044 14.9109 97.7682 14.4912C97.4924 14.0596 97.3545 13.5619 97.3545 12.9983C97.3545 12.4587 97.4744 11.9791 97.7142 11.5594C97.954 11.1277 98.3258 10.768 98.8294 10.4802C99.333 10.1924 99.9685 9.9886 100.736 9.86869L103.938 9.34708V11.1457L101.186 11.6134C100.718 11.6973 100.37 11.8472 100.142 12.063C99.9146 12.2789 99.8007 12.5607 99.8007 12.9084C99.8007 13.2442 99.9266 13.514 100.178 13.7178C100.442 13.9097 100.766 14.0056 101.15 14.0056C101.641 14.0056 102.073 13.9037 102.445 13.6998C102.828 13.484 103.122 13.1902 103.326 12.8185C103.542 12.4468 103.65 12.0391 103.65 11.5954V9.07728C103.65 8.65759 103.482 8.30986 103.146 8.03406C102.822 7.74628 102.391 7.60238 101.851 7.60238C101.348 7.60238 100.898 7.74028 100.502 8.01607C100.118 8.27988 99.8366 8.63361 99.6568 9.07728L97.7322 8.14198C97.9241 7.62637 98.2238 7.1827 98.6315 6.81098C99.0512 6.42726 99.5429 6.12749 100.106 5.91165C100.67 5.69581 101.282 5.58789 101.941 5.58789C102.744 5.58789 103.452 5.73778 104.063 6.03756C104.675 6.32534 105.149 6.73303 105.484 7.26064C105.832 7.77625 106.006 8.3818 106.006 9.07728V15.5884H103.776V13.9157L104.279 13.8797C104.027 14.2994 103.728 14.6531 103.38 14.9409C103.032 15.2167 102.637 15.4325 102.193 15.5884C101.749 15.7323 101.258 15.8042 100.718 15.8042Z" fill="#153035"/>
<path d="M87.6279 15.5884V5.80373H89.8403V7.72829L89.6604 7.38655C89.8882 6.79899 90.26 6.35532 90.7756 6.05554C91.3032 5.74377 91.9147 5.58789 92.6102 5.58789C93.3297 5.58789 93.9652 5.74377 94.5168 6.05554C95.0803 6.36731 95.518 6.80498 95.8298 7.36856C96.1416 7.92015 96.2974 8.56167 96.2974 9.29312V15.5884H93.9412V9.8507C93.9412 9.41903 93.8573 9.0473 93.6894 8.73554C93.5215 8.42377 93.2877 8.18395 92.9879 8.01607C92.7001 7.83621 92.3584 7.74628 91.9627 7.74628C91.579 7.74628 91.2372 7.83621 90.9375 8.01607C90.6377 8.18395 90.4039 8.42377 90.236 8.73554C90.0681 9.0473 89.9842 9.41903 89.9842 9.8507V15.5884H87.6279Z" fill="#153035"/>
<path d="M81.2182 15.8042C80.2589 15.8042 79.3836 15.5824 78.5922 15.1387C77.8128 14.6951 77.1892 14.0895 76.7216 13.3221C76.2659 12.5547 76.0381 11.6793 76.0381 10.6961C76.0381 9.71281 76.2659 8.83746 76.7216 8.07003C77.1892 7.30261 77.8128 6.69706 78.5922 6.25339C79.3716 5.80972 80.2469 5.58789 81.2182 5.58789C82.1775 5.58789 83.0468 5.80972 83.8263 6.25339C84.6057 6.69706 85.2232 7.30261 85.6789 8.07003C86.1465 8.82547 86.3803 9.70081 86.3803 10.6961C86.3803 11.6793 86.1465 12.5547 85.6789 13.3221C85.2112 14.0895 84.5877 14.6951 83.8083 15.1387C83.0289 15.5824 82.1655 15.8042 81.2182 15.8042ZM81.2182 13.6459C81.7458 13.6459 82.2075 13.52 82.6032 13.2681C83.0109 13.0163 83.3286 12.6686 83.5565 12.2249C83.7963 11.7693 83.9162 11.2596 83.9162 10.6961C83.9162 10.1205 83.7963 9.61688 83.5565 9.1852C83.3286 8.74153 83.0109 8.39379 82.6032 8.14198C82.2075 7.87818 81.7458 7.74628 81.2182 7.74628C80.6786 7.74628 80.205 7.87818 79.7973 8.14198C79.3896 8.39379 79.0658 8.74153 78.826 9.1852C78.5982 9.61688 78.4843 10.1205 78.4843 10.6961C78.4843 11.2596 78.5982 11.7693 78.826 12.2249C79.0658 12.6686 79.3896 13.0163 79.7973 13.2681C80.205 13.52 80.6786 13.6459 81.2182 13.6459Z" fill="#153035"/>
<path d="M72.4414 15.5885V5.80377H74.7976V15.5885H72.4414ZM72.4414 4.70659V2.18848H74.7976V4.70659H72.4414Z" fill="#153035"/>
<path d="M70.0117 15.6962C68.9086 15.6962 68.0512 15.3964 67.4397 14.7968C66.8401 14.1853 66.5403 13.3279 66.5403 12.2248V7.908H64.8496V5.80357H65.0295C65.5091 5.80357 65.8808 5.67767 66.1446 5.42586C66.4084 5.17404 66.5403 4.80832 66.5403 4.32868V3.57324H68.8966V5.80357H71.1449V7.908H68.8966V12.0989C68.8966 12.4226 68.9505 12.6984 69.0585 12.9262C69.1784 13.1541 69.3582 13.3279 69.5981 13.4479C69.8499 13.5678 70.1676 13.6277 70.5513 13.6277C70.6353 13.6277 70.7312 13.6217 70.8391 13.6097C70.959 13.5977 71.073 13.5858 71.1809 13.5738V15.5883C71.013 15.6122 70.8211 15.6362 70.6053 15.6602C70.3895 15.6842 70.1916 15.6962 70.0117 15.6962Z" fill="#153035"/>
<path d="M59.8601 15.8042C58.8889 15.8042 58.0135 15.5824 57.2341 15.1387C56.4667 14.6831 55.8611 14.0715 55.4175 13.3041C54.9738 12.5247 54.752 11.6494 54.752 10.6781C54.752 9.70681 54.9738 8.83746 55.4175 8.07003C55.8611 7.30261 56.4667 6.69706 57.2341 6.25339C58.0135 5.80972 58.8889 5.58789 59.8601 5.58789C60.5556 5.58789 61.2031 5.7138 61.8027 5.96561C62.4022 6.20543 62.9178 6.54118 63.3495 6.97285C63.7932 7.39254 64.1109 7.89616 64.3028 8.48372L62.2344 9.38305C62.0545 8.89142 61.7487 8.49572 61.317 8.19594C60.8974 7.89616 60.4117 7.74628 59.8601 7.74628C59.3445 7.74628 58.8829 7.87218 58.4752 8.12399C58.0795 8.37581 57.7677 8.72355 57.5399 9.16721C57.312 9.61088 57.1981 10.1205 57.1981 10.6961C57.1981 11.2716 57.312 11.7813 57.5399 12.2249C57.7677 12.6686 58.0795 13.0163 58.4752 13.2681C58.8829 13.52 59.3445 13.6459 59.8601 13.6459C60.4237 13.6459 60.9153 13.496 61.335 13.1962C61.7547 12.8964 62.0545 12.4947 62.2344 11.9911L64.3028 12.9264C64.1109 13.478 63.7992 13.9756 63.3675 14.4193C62.9358 14.851 62.4202 15.1927 61.8207 15.4445C61.2211 15.6843 60.5676 15.8042 59.8601 15.8042Z" fill="#153035"/>
<path d="M45.0254 15.5884V5.80373H47.2377V7.72829L47.0579 7.38655C47.2857 6.79899 47.6574 6.35532 48.173 6.05554C48.7006 5.74377 49.3122 5.58789 50.0077 5.58789C50.7271 5.58789 51.3627 5.74377 51.9142 6.05554C52.4778 6.36731 52.9155 6.80498 53.2273 7.36856C53.539 7.92015 53.6949 8.56167 53.6949 9.29312V15.5884H51.3387V9.8507C51.3387 9.41903 51.2547 9.0473 51.0869 8.73554C50.919 8.42377 50.6852 8.18395 50.3854 8.01607C50.0976 7.83621 49.7559 7.74628 49.3601 7.74628C48.9764 7.74628 48.6347 7.83621 48.3349 8.01607C48.0351 8.18395 47.8013 8.42377 47.6334 8.73554C47.4656 9.0473 47.3816 9.41903 47.3816 9.8507V15.5884H45.0254Z" fill="#153035"/>
<path d="M38.3923 15.8042C37.6369 15.8042 36.9774 15.6364 36.4138 15.3006C35.8622 14.9649 35.4365 14.4972 35.1368 13.8977C34.849 13.2981 34.7051 12.5966 34.7051 11.7932V5.80371H37.0613V11.5954C37.0613 12.0031 37.1393 12.3628 37.2951 12.6746C37.463 12.9743 37.6968 13.2142 37.9966 13.394C38.3084 13.5619 38.6561 13.6458 39.0398 13.6458C39.4235 13.6458 39.7653 13.5619 40.0651 13.394C40.3648 13.2142 40.5987 12.9684 40.7665 12.6566C40.9344 12.3448 41.0184 11.9731 41.0184 11.5414V5.80371H43.3746V15.5884H41.1443V13.6638L41.3421 14.0056C41.1143 14.6051 40.7366 15.0548 40.209 15.3546C39.6933 15.6543 39.0878 15.8042 38.3923 15.8042Z" fill="#153035"/>
<path d="M25.2773 15.5885V2.18848H34.2167V4.34686H27.7235V8.05209H33.4073V10.2105H27.7235V15.5885H25.2773Z" fill="#153035"/>
<path d="M5 3.84906C5 3.38014 4.55228 3 4 3V3C3.44772 3 3 3.38014 3 3.84906V14.1509C3 14.6199 3.44772 15 4 15V15C4.55228 15 5 14.6199 5 14.1509V3.84906Z" fill="#153035"/>
<path d="M5 3.84906C5 3.38014 4.55228 3 4 3V3C3.44772 3 3 3.38014 3 3.84906V14.1509C3 14.6199 3.44772 15 4 15V15C4.55228 15 5 14.6199 5 14.1509V3.84906Z" fill="#153035"/>
<path d="M5 3.84906C5 3.38014 4.55228 3 4 3V3C3.44772 3 3 3.38014 3 3.84906V14.1509C3 14.6199 3.44772 15 4 15V15C4.55228 15 5 14.6199 5 14.1509V3.84906Z" fill="#153035"/>
<path d="M2 4.98684C2 4.44182 1.55228 4 1 4V4C0.447715 4 -1.04308e-07 4.44182 -1.04308e-07 4.98684V13.0132C-1.04308e-07 13.5582 0.447715 14 1 14V14C1.55228 14 2 13.5582 2 13.0132V4.98684Z" fill="#153035"/>
<path d="M2 4.98684C2 4.44182 1.55228 4 1 4V4C0.447715 4 -1.04308e-07 4.44182 -1.04308e-07 4.98684V13.0132C-1.04308e-07 13.5582 0.447715 14 1 14V14C1.55228 14 2 13.5582 2 13.0132V4.98684Z" fill="#153035"/>
<path d="M2 4.98684C2 4.44182 1.55228 4 1 4V4C0.447715 4 -1.04308e-07 4.44182 -1.04308e-07 4.98684V13.0132C-1.04308e-07 13.5582 0.447715 14 1 14V14C1.55228 14 2 13.5582 2 13.0132V4.98684Z" fill="#153035"/>
<path fill-rule="evenodd" clip-rule="evenodd" d="M8.8 0C7.2536 0 6 1.28942 6 2.88V15.12C6 16.7106 7.2536 18 8.8 18H17.2C18.7464 18 20 16.7106 20 15.12V2.88C20 1.28942 18.7464 0 17.2 0H8.8ZM9.61667 2.64C9.23007 2.64 8.91667 2.96236 8.91667 3.36V14.64C8.91667 15.0376 9.23007 15.36 9.61667 15.36H9.85C10.2366 15.36 10.55 15.0376 10.55 14.64V3.36C10.55 2.96235 10.2366 2.64 9.85 2.64H9.61667Z" fill="#153035"/>
</svg>
